<svg xmlns="http://www.w3.org/2000/svg" width="1280" height="520" viewBox="0 0 1280 520" role="img" aria-labelledby="title desc"><title id="title">Target Discovery Workflow</title><desc id="desc">Target Discovery Workflow</desc><defs><marker id="arrow" markerWidth="10" markerHeight="10" refX="8" refY="3" orient="auto" markerUnits="strokeWidth"><path d="M0,0 L0,6 L9,3 z" fill="#64748b"/></marker></defs><rect width="100%" height="100%" fill="#f8fafc"/><text x="40" y="44" font-family="Arial, sans-serif" font-size="28" font-weight="700" fill="#0f172a">Target Discovery Workflow</text><g font-family="Arial, sans-serif"><rect x="45" y="180" width="235" height="118" rx="8" fill="#dbeafe" stroke="#2563eb" stroke-width="2"/>
<text x="162.5" y="207" text-anchor="middle" font-size="17" font-weight="700" fill="#0f172a">Public commands</text>
<text x="162.5" y="234" text-anchor="middle" font-size="14" fill="#475569">discover-oci-instances.sh</text>
<text x="162.5" y="252" text-anchor="middle" font-size="14" fill="#475569">or discover-cloud-</text>
<text x="162.5" y="270" text-anchor="middle" font-size="14" fill="#475569">instances.sh</text>
<rect x="355" y="95" width="235" height="112" rx="8" fill="#dcfce7" stroke="#16a34a" stroke-width="2"/>
<text x="472.5" y="122" text-anchor="middle" font-size="17" font-weight="700" fill="#0f172a">Cloud adapters</text>
<text x="472.5" y="149" text-anchor="middle" font-size="14" fill="#475569">OCI, AWS, Azure and GCP</text>
<text x="472.5" y="167" text-anchor="middle" font-size="14" fill="#475569">inventory calls</text>
<rect x="355" y="305" width="235" height="112" rx="8" fill="#dcfce7" stroke="#16a34a" stroke-width="2"/>
<text x="472.5" y="332" text-anchor="middle" font-size="17" font-weight="700" fill="#0f172a">OS and network mapping</text>
<text x="472.5" y="359" text-anchor="middle" font-size="14" fill="#475569">Primary IP, cloud label and</text>
<text x="472.5" y="377" text-anchor="middle" font-size="14" fill="#475569">exporter port</text>
<rect x="680" y="190" width="250" height="132" rx="8" fill="#fef3c7" stroke="#d97706" stroke-width="2"/>
<text x="805.0" y="217" text-anchor="middle" font-size="17" font-weight="700" fill="#0f172a">lib/target-discovery.sh</text>
<text x="805.0" y="244" text-anchor="middle" font-size="14" fill="#475569">One internal module</text>
<text x="805.0" y="262" text-anchor="middle" font-size="14" fill="#475569">normalizes records and</text>
<text x="805.0" y="280" text-anchor="middle" font-size="14" fill="#475569">renders output</text>
<rect x="1035" y="70" width="205" height="108" rx="8" fill="#e2e8f0" stroke="#475569" stroke-width="2"/>
<text x="1137.5" y="97" text-anchor="middle" font-size="17" font-weight="700" fill="#0f172a">Table output</text>
<text x="1137.5" y="124" text-anchor="middle" font-size="14" fill="#475569">Human review before</text>
<text x="1137.5" y="142" text-anchor="middle" font-size="14" fill="#475569">install</text>
<rect x="1035" y="220" width="205" height="108" rx="8" fill="#e2e8f0" stroke="#475569" stroke-width="2"/>
<text x="1137.5" y="247" text-anchor="middle" font-size="17" font-weight="700" fill="#0f172a">Targets output</text>
<text x="1137.5" y="274" text-anchor="middle" font-size="14" fill="#475569">discovered-targets.json</text>
<text x="1137.5" y="292" text-anchor="middle" font-size="14" fill="#475569">file_sd_config</text>
<rect x="1035" y="370" width="205" height="108" rx="8" fill="#e2e8f0" stroke="#475569" stroke-width="2"/>
<text x="1137.5" y="397" text-anchor="middle" font-size="17" font-weight="700" fill="#0f172a">Config output</text>
<text x="1137.5" y="424" text-anchor="middle" font-size="14" fill="#475569">Merged config.json</text>
<text x="1137.5" y="442" text-anchor="middle" font-size="14" fill="#475569">TargetNodes</text>
<line x1="280" y1="220" x2="355" y2="151" stroke="#64748b" stroke-width="2.5" marker-end="url(#arrow)"/>
<text x="317.5" y="177.5" text-anchor="middle" font-size="12" font-weight="600" fill="#475569">OCI / cloud CLI</text>
<line x1="280" y1="250" x2="355" y2="360" stroke="#64748b" stroke-width="2.5" marker-end="url(#arrow)"/>
<text x="317.5" y="297.0" text-anchor="middle" font-size="12" font-weight="600" fill="#475569">discover</text>
<line x1="590" y1="151" x2="680" y2="224" stroke="#64748b" stroke-width="2.5" marker-end="url(#arrow)"/>
<text x="635.0" y="179.5" text-anchor="middle" font-size="12" font-weight="600" fill="#475569">raw VMs</text>
<line x1="590" y1="360" x2="680" y2="270" stroke="#64748b" stroke-width="2.5" marker-end="url(#arrow)"/>
<text x="635.0" y="307.0" text-anchor="middle" font-size="12" font-weight="600" fill="#475569">normalized</text>
<line x1="930" y1="224" x2="1035" y2="124" stroke="#64748b" stroke-width="2.5" marker-end="url(#arrow)"/>
<text x="982.5" y="166.0" text-anchor="middle" font-size="12" font-weight="600" fill="#475569">table</text>
<line x1="930" y1="256" x2="1035" y2="274" stroke="#64748b" stroke-width="2.5" marker-end="url(#arrow)"/>
<text x="982.5" y="257.0" text-anchor="middle" font-size="12" font-weight="600" fill="#475569">targets</text>
<line x1="930" y1="288" x2="1035" y2="424" stroke="#64748b" stroke-width="2.5" marker-end="url(#arrow)"/>
<text x="982.5" y="348.0" text-anchor="middle" font-size="12" font-weight="600" fill="#475569">config</text></g></svg>
